HIERARCHY
ROOT Hips
{
	OFFSET 0.000000 0.000000 0.000000
	CHANNELS 6 Xposition Yposition Zposition Yrotation Xrotation Zrotation
	JOINT Chest
	{
		OFFSET 0.000000 -0.009282 11.569106
		CHANNELS 6 Xposition Yposition Zposition Yrotation Xrotation Zrotation
		JOINT Chest2
		{
			OFFSET -0.000000 0.016863 9.269641
			CHANNELS 6 Xposition Yposition Zposition Yrotation Xrotation Zrotation
			JOINT Chest3
			{
				OFFSET -0.000000 0.000000 8.374491
				CHANNELS 6 Xposition Yposition Zposition Yrotation Xrotation Zrotation
				JOINT Chest4
				{
					OFFSET -0.000000 0.000000 8.374493
					CHANNELS 6 Xposition Yposition Zposition Yrotation Xrotation Zrotation
					JOINT Neck
					{
						OFFSET -0.000000 0.000001 12.152554
						CHANNELS 6 Xposition Yposition Zposition Yrotation Xrotation Zrotation
						JOINT Head
						{
							OFFSET -0.000000 0.040100 7.802319
							CHANNELS 6 Xposition Yposition Zposition Yrotation Xrotation Zrotation
							End Site
							{
								OFFSET -0.000000 0.020946 14.853096
							}
						}
					}
					JOINT RightCollar
					{
						OFFSET 2.894404 0.000001 6.791374
						CHANNELS 6 Xposition Yposition Zposition Yrotation Xrotation Zrotation
						JOINT RightShoulder
						{
							OFFSET 13.574684 0.000001 0.000000
							CHANNELS 6 Xposition Yposition Zposition Yrotation Xrotation Zrotation
							JOINT RightElbow
							{
								OFFSET 23.923903 0.000002 0.000000
								CHANNELS 6 Xposition Yposition Zposition Yrotation Xrotation Zrotation
								JOINT RightWrist
								{
									OFFSET 19.846718 0.012767 0.000000
									CHANNELS 6 Xposition Yposition Zposition Yrotation Xrotation Zrotation
									End Site
									{
										OFFSET 14.973145 0.000001 0.000000
									}
								}
							}
						}
					}
					JOINT LeftCollar
					{
						OFFSET -2.894404 0.000000 6.791374
						CHANNELS 6 Xposition Yposition Zposition Yrotation Xrotation Zrotation
						JOINT LeftShoulder
						{
							OFFSET -13.574684 -0.000001 0.000000
							CHANNELS 6 Xposition Yposition Zposition Yrotation Xrotation Zrotation
							JOINT LeftElbow
							{
								OFFSET -23.923903 -0.000002 0.000000
								CHANNELS 6 Xposition Yposition Zposition Yrotation Xrotation Zrotation
								JOINT LeftWrist
								{
									OFFSET -19.846718 0.012763 0.000000
									CHANNELS 6 Xposition Yposition Zposition Yrotation Xrotation Zrotation
									End Site
									{
										OFFSET -14.973145 -0.000001 0.000000
									}
								}
							}
						}
					}
				}
			}
		}
	}
	JOINT RightHip
	{
		OFFSET 9.469263 0.004643 0.045487
		CHANNELS 6 Xposition Yposition Zposition Yrotation Xrotation Zrotation
		JOINT RightKnee
		{
			OFFSET 0.000000 0.002666 -40.478676
			CHANNELS 6 Xposition Yposition Zposition Yrotation Xrotation Zrotation
			JOINT RightAnkle
			{
				OFFSET 0.000000 0.049110 -35.224068
				CHANNELS 6 Xposition Yposition Zposition Yrotation Xrotation Zrotation
				JOINT RightToe
				{
					OFFSET -0.000001 12.539530 -6.151390
					CHANNELS 6 Xposition Yposition Zposition Yrotation Xrotation Zrotation
					End Site
					{
						OFFSET -0.000001 5.044996 -1.291870
					}
				}
			}
		}
	}
	JOINT LeftHip
	{
		OFFSET -9.469263 0.004641 0.045487
		CHANNELS 6 Xposition Yposition Zposition Yrotation Xrotation Zrotation
		JOINT LeftKnee
		{
			OFFSET 0.000000 0.002666 -40.478676
			CHANNELS 6 Xposition Yposition Zposition Yrotation Xrotation Zrotation
			JOINT LeftAnkle
			{
				OFFSET 0.000000 0.049110 -35.224068
				CHANNELS 6 Xposition Yposition Zposition Yrotation Xrotation Zrotation
				JOINT LeftToe
				{
					OFFSET -0.000001 12.539530 -6.151390
					CHANNELS 6 Xposition Yposition Zposition Yrotation Xrotation Zrotation
					End Site
					{
						OFFSET -0.000001 5.044996 -1.291870
					}
				}
			}
		}
	}
}
MOTION
Frames: 4
Frame Time: 0.016667
6.630601 2.401052 82.997826 -11.985881 -2.173567 -100.062606 -0.000000 -0.009282 11.569103 -0.104840 -1.978344 0.456872 -0.000000 0.016861 9.269626 -0.039959 -0.879017 0.221521 0.000000 -0.000000 8.374491 -0.039959 -0.879018 0.221523 0.000000 -0.000001 8.374497 -0.029650 -0.659280 0.166081 -0.000001 0.000001 12.152544 4.874064 -17.596154 -11.633361 -0.000001 0.040098 7.802295 5.063630 3.433449 -19.799709 2.894404 0.000001 6.791371 1.615984 -1.571982 -10.394469 13.574685 0.000003 -0.000008 60.822971 12.026778 37.155874 23.923903 -0.000008 -0.000004 47.797804 -31.086657 50.672111 19.846718 0.012761 -0.000005 -18.850513 3.004942 -11.397516 -2.894404 -0.000001 6.791370 -4.853908 -2.181242 -8.611154 -13.574684 -0.000000 0.000006 -61.974814 -10.062948 -42.358914 -23.923899 -0.000007 0.000004 -51.029180 -8.720535 -62.990368 -19.846722 0.012746 -0.000004 -74.612215 49.318897 1.110767 9.469264 0.004641 0.045484 2.139893 -16.486060 -14.321192 0.000086 0.002663 -40.478565 -2.730018 2.289514 -1.946351 0.000083 0.049102 -35.223923 3.449773 3.252700 -1.597467 -0.000002 12.539527 -6.151408 -0.079102 -0.101714 0.051394 -9.469265 0.004640 0.045489 1.231617 -15.256013 -25.065312 -0.000848 0.002525 -40.478550 -1.274319 3.198479 18.408080 -0.000964 0.048929 -35.223984 0.631203 1.678175 21.146197 -0.000001 12.539535 -6.151405 -0.034826 -0.061747 -0.037536 
6.613031 2.419904 82.991791 -12.025420 -2.072800 -99.882426 0.000000 -0.009285 11.569099 -0.097009 -1.896980 0.261722 0.000000 0.016865 9.269631 -0.050844 -0.849360 0.119017 0.000000 0.000003 8.374477 -0.050844 -0.849361 0.119017 0.000000 -0.000001 8.374512 -0.037966 -0.637031 0.089190 0.000000 -0.000000 12.152544 4.695823 -17.728383 -11.493539 -0.000000 0.040098 7.802351 4.798351 3.176640 -19.596839 2.894404 0.000002 6.791368 1.487384 -2.117843 -10.296758 13.574683 0.000002 -0.000001 59.547508 11.397590 36.225855 23.923899 0.000001 -0.000020 44.480903 -33.512412 51.423142 19.846725 0.012765 -0.000002 -6.775313 -4.155147 -32.834700 -2.894404 0.000001 6.791375 -5.302252 -2.252777 -8.335495 -13.574681 -0.000003 -0.000008 -62.687647 -9.924655 -42.645642 -23.923901 -0.000000 0.000001 -54.466804 -7.152952 -63.738219 -19.846714 0.012752 -0.000003 -82.191075 54.722308 -19.756700 9.469263 0.004639 0.045477 2.038981 -16.415682 -14.058901 0.000092 0.002663 -40.478584 -2.697802 2.081747 -2.073694 0.000096 0.049104 -35.223919 3.281952 3.352737 -1.888492 -0.000003 12.539526 -6.151395 0.044612 -0.084915 0.046977 -9.469262 0.004639 0.045480 1.163889 -15.246032 -24.943815 -0.000842 0.002527 -40.478550 -1.271974 3.203115 18.347789 -0.000954 0.048932 -35.223991 0.540923 1.645623 20.958360 0.000002 12.539534 -6.151386 0.028697 -0.042310 -0.031451 
6.566978 2.421613 82.992645 -12.053239 -1.986428 -99.894542 -0.000000 -0.009283 11.569115 -0.100149 -1.927275 0.156805 -0.000001 0.016862 9.269636 -0.068913 -0.869292 0.060654 -0.000000 0.000001 8.374484 -0.068912 -0.869293 0.060652 -0.000000 -0.000002 8.374502 -0.051597 -0.651976 0.045390 0.000001 -0.000000 12.152554 4.479105 -17.724001 -11.341276 0.000000 0.040100 7.802321 4.450381 3.168217 -19.390021 2.894404 0.000001 6.791376 1.472408 -2.109072 -10.192085 13.574688 0.000002 0.000006 58.496192 10.043312 35.780042 23.923895 -0.000006 -0.000003 40.028020 -37.712691 54.816537 19.846716 0.012757 0.000004 12.156591 -1.079908 -53.368656 -2.894404 0.000001 6.791371 -5.374357 -2.050399 -8.065916 -13.574681 -0.000002 0.000002 -62.628108 -9.359665 -42.893417 -23.923903 -0.000001 0.000001 -55.214652 -5.874691 -64.051069 -19.846712 0.012746 -0.000001 -88.377921 59.618959 -40.573048 9.469264 0.004641 0.045495 1.926345 -16.265932 -13.700215 0.000100 0.002662 -40.478584 -2.700288 1.809326 -2.243424 0.000104 0.049102 -35.223904 3.098705 3.430936 -2.059260 -0.000001 12.539526 -6.151398 0.158404 -0.062887 0.043231 -9.469264 0.004641 0.045495 1.079692 -15.221727 -24.850743 -0.000847 0.002525 -40.478558 -1.265044 3.187882 18.403301 -0.000950 0.048936 -35.223991 0.420710 1.604435 20.834150 0.000000 12.539535 -6.151387 0.082264 -0.000336 -0.024275 
6.502522 2.405170 82.998734 -12.047129 -1.937940 -100.091313 -0.000000 -0.009285 11.569095 -0.103474 -2.124140 0.164542 -0.000000 0.016861 9.269627 -0.082937 -0.958987 0.060638 -0.000000 0.000001 8.374499 -0.082937 -0.958987 0.060639 -0.000000 0.000000 8.374496 -0.062106 -0.719247 0.045348 -0.000000 0.000002 12.152575 4.322282 -17.576353 -11.211265 -0.000000 0.040099 7.802334 4.187933 3.430222 -19.210634 2.894404 0.000001 6.791379 1.402250 -1.578295 -10.210388 13.574686 0.000001 0.000001 57.824907 8.849676 35.641894 23.923901 -0.000002 0.000006 40.708563 -43.196749 56.300775 19.846724 0.012761 0.000003 28.337118 11.180712 -65.983978 -2.894404 0.000001 6.791377 -5.139115 -1.732643 -7.937331 -13.574684 -0.000001 -0.000013 -61.965798 -8.049742 -43.545229 -23.923908 -0.000006 -0.000003 -52.368030 -4.106755 -63.481595 -19.846724 0.012758 -0.000007 -68.967767 59.390947 -39.201065 9.469263 0.004642 0.045474 1.824798 -16.084206 -13.432492 0.000102 0.002664 -40.478596 -2.705108 1.587710 -2.268144 0.000105 0.049101 -35.223915 2.954806 3.460284 -2.086537 -0.000001 12.539526 -6.151384 0.214475 -0.045720 0.035261 -9.469265 0.004639 0.045470 1.010753 -15.171069 -24.797015 -0.000851 0.002525 -40.478554 -1.274735 3.162791 18.500966 -0.000952 0.048933 -35.223999 0.326897 1.563765 20.878188 -0.000001 12.539536 -6.151396 0.105471 0.048689 -0.013272 
